<?xml version="1.0" standalone="no"?><!DOCTYPE svg PUBLIC "-//W3C//DTD SVG 1.1//EN" "http://www.w3.org/Graphics/SVG/1.1/DTD/svg11.dtd"><svg t="1564738895158" class="icon" viewBox="0 0 1024 1024" version="1.1" xmlns="http://www.w3.org/2000/svg" p-id="5366" xmlns:xlink="http://www.w3.org/1999/xlink" width="200" height="200"><defs><style type="text/css"></style></defs><path d="M440.32 227.328c-124.928 0-225.28 100.352-225.28 225.28s100.352 225.28 225.28 225.28c124.928 0 225.28-100.352 225.28-225.28S565.248 227.328 440.32 227.328zM440.32 618.496c-92.16 0-165.888-73.728-165.888-165.888S348.16 286.72 440.32 286.72c92.16 0 165.888 73.728 165.888 165.888S530.432 618.496 440.32 618.496z" p-id="5367"></path><path d="M778.24 788.48 778.24 788.48c-16.384 16.384-45.056 16.384-61.44 0l-182.272-182.272 61.44-61.44 182.272 182.272C794.624 743.424 794.624 772.096 778.24 788.48z" p-id="5368"></path></svg>