<?xml version="1.0" standalone="no"?><!DOCTYPE svg PUBLIC "-//W3C//DTD SVG 1.1//EN" "http://www.w3.org/Graphics/SVG/1.1/DTD/svg11.dtd"><svg t="1565440027634" class="icon" viewBox="0 0 1024 1024" version="1.1" xmlns="http://www.w3.org/2000/svg" p-id="2304" xmlns:xlink="http://www.w3.org/1999/xlink" width="200" height="200"><defs><style type="text/css"></style></defs><path d="M752.78 614.775c22.772 0 41.198-18.467 41.198-41.196 0-13.12-6.123-24.788-15.663-32.33l0.213-0.26c-31.703-24.542-66.947-44.657-105.005-59.222 48.44-41.559 79.256-103.114 79.256-171.951 0-125.122-101.463-226.586-226.586-226.586-125.123 0-226.587 101.464-226.587 226.586 0 68.837 30.818 130.392 79.257 171.951-154.57 59.302-264.565 208.764-264.646 384.298v0.08c0.08 22.69 18.507 41.118 41.199 41.118 22.77 0 41.117-18.428 41.197-41.118 0-181.728 147.895-329.582 329.581-329.582 74.498 0 143.081 25.129 198.295 66.946 7.38 6.976 17.328 11.266 28.29 11.266zM526.192 454.008c-79.498 0-144.19-64.693-144.19-144.192 0-79.499 64.694-144.192 144.19-144.192 79.499 0 144.192 64.693 144.192 144.192s-64.693 144.192-144.192 144.192z m383.733 298.843H848.13v-61.798c0.001-17.057-13.84-30.898-30.897-30.898-17.1 0-30.898 13.84-30.898 30.898v61.798h-61.797c-17.097 0-30.897 13.84-30.897 30.898 0 17.057 13.8 30.898 30.897 30.898h61.797v61.797c0 17.059 13.799 30.896 30.898 30.896 17.058 0 30.897-13.837 30.897-30.896v-61.797h61.797c17.058 0 30.898-13.84 30.898-30.898s-13.839-30.898-30.898-30.898z" p-id="2305"></path></svg>