<?xml version="1.0" standalone="no"?><!DOCTYPE svg PUBLIC "-//W3C//DTD SVG 1.1//EN" "http://www.w3.org/Graphics/SVG/1.1/DTD/svg11.dtd"><svg t="1564743823825" class="icon" viewBox="0 0 1024 1024" version="1.1" xmlns="http://www.w3.org/2000/svg" p-id="1575" xmlns:xlink="http://www.w3.org/1999/xlink" width="200" height="200"><defs><style type="text/css"></style></defs><path d="M853.615 195.025h-489.079c-19.316 0-34.947 15.63-34.947 34.947 0 19.316 15.63 34.947 34.947 34.947h489.079c19.316 0 34.947-15.63 34.947-34.947-0.001-19.317-15.631-34.947-34.947-34.947z" p-id="1576"></path><path d="M853.615 322.013h-573.477c-40.543 0-74.807-42.147-74.807-92.041 0-7.206 0.736-14.241 2.080-21.021 8.837-40.555 45.022-71.022 88.186-71.022h558.017c19.316 0 34.947-15.63 34.947-34.947 0-19.316-15.63-34.947-34.947-34.947h-573.477c-70.375 0-129.164 56.526-142.060 131.121-1.729 9.41-2.64 19.103-2.64 29.005v517.577c0 115.93 94.329 210.225 210.259 210.225h507.611c0.051 0 0.102-0.004 0.153-0.004s0.102 0.004 0.153 0.004c19.316 0 34.947-15.63 34.947-34.947v-564.057c0-19.316-15.63-34.946-34.946-34.946zM205.33 745.738v-377.201c21.842 14.825 47.45 23.367 74.807 23.367h538.53v494.165h-472.972c-77.401 0-140.365-62.965-140.365-140.332z" p-id="1577"></path><path d="M561.417 638.988l102.586-102.587c13.651-13.651 13.651-35.766 0-49.417-13.651-13.651-35.766-13.651-49.417 0l-102.586 102.587-102.587-102.587c-13.651-13.651-35.766-13.651-49.415 0-13.651 13.651-13.651 35.766 0 49.417l102.587 102.587-102.587 102.586c-13.651 13.651-13.651 35.766 0 49.417 6.825 6.825 15.767 10.238 24.709 10.238 8.942 0 17.882-3.413 24.709-10.238l102.586-102.586 102.587 102.586c6.825 6.825 15.767 10.238 24.708 10.238 8.942 0 17.882-3.413 24.709-10.238 13.651-13.651 13.651-35.766 0-49.417l-102.587-102.586z" p-id="1578"></path></svg>