<?xml version="1.0" standalone="no"?><!DOCTYPE svg PUBLIC "-//W3C//DTD SVG 1.1//EN" "http://www.w3.org/Graphics/SVG/1.1/DTD/svg11.dtd"><svg t="1565400095679" class="icon" viewBox="0 0 1024 1024" version="1.1" xmlns="http://www.w3.org/2000/svg" p-id="2283" xmlns:xlink="http://www.w3.org/1999/xlink" width="200" height="200"><defs><style type="text/css"></style></defs><path d="M875.052155 823.429939c-19.820418-51.561329-48.232514-97.906867-84.444251-137.749294-36.403095-40.054251-78.866209-71.533196-126.20947-93.566002-8.992815-4.185322-18.088984-7.988951-27.278273-11.418051 20.349467-11.520381 39.263236-25.873274 56.248072-42.85811 49.285496-49.285496 76.428693-114.813932 76.428693-184.514387 0-69.700455-27.142174-135.228891-76.428693-184.514387s-114.814955-76.428693-184.515411-76.428693-135.228891 27.143197-184.515411 76.428693c-49.285496 49.28652-76.428693 114.813932-76.428693 184.514387 0 69.700455 27.143197 135.228891 76.428693 184.514387 16.984836 16.984836 35.899628 31.337729 56.247049 42.85811-9.18929 3.430122-18.285458 7.232728-27.278273 11.418051-47.343261 22.031782-89.806375 53.511751-126.20947 93.566002-36.21276 39.84345-66.13628 85.633333-84.445274 137.749294-15.278985 43.48949-13.682627 86.440721-14.458293 106.500593l61.380976 0c-2.025123-143.258775 134.198421-310.976614 319.278697-310.976614 185.079252 0 324.882322 173.85563 325.419558 310.976614l61.379952 0C894.560464 891.158483 895.512139 876.651071 875.052155 823.429939zM309.306066 353.324094c0-110.028952 89.515756-199.544709 199.545732-199.544709 110.028952 0 199.545732 89.515756 199.545732 199.544709s-89.51678 199.544709-199.545732 199.544709C398.821823 552.868803 309.306066 463.353047 309.306066 353.324094z" fill="#1296db" p-id="2284"></path></svg>