<?xml version="1.0" standalone="no"?><!DOCTYPE svg PUBLIC "-//W3C//DTD SVG 1.1//EN" "http://www.w3.org/Graphics/SVG/1.1/DTD/svg11.dtd"><svg t="1564739063881" class="icon" viewBox="0 0 1024 1024" version="1.1" xmlns="http://www.w3.org/2000/svg" p-id="2755" xmlns:xlink="http://www.w3.org/1999/xlink" width="200" height="200"><defs><style type="text/css"></style></defs><path d="M959 605.115 959 418.87 814.662 418.87c-5.901-19.161-13.623-37.541-22.88-54.957l102.146-102.161-131.71-131.68L660.103 232.188c-17.446-9.242-35.795-16.949-54.972-22.85L605.131 65 418.87 65l0 144.339c-19.177 5.9-37.525 13.607-54.972 22.85L261.782 130.072l-131.71 131.68 102.146 102.161c-9.257 17.416-16.979 35.796-22.88 54.957L65 418.87l0 186.245 144.339 0c5.9 19.177 13.623 37.511 22.88 54.972L130.072 762.233l131.68 131.68 102.146-102.146c17.446 9.242 35.795 16.994 54.972 22.88L418.87 959l186.261 0L605.131 814.646c19.177-5.886 37.525-13.638 54.972-22.88l102.146 102.146 131.68-131.68L791.782 660.087c9.257-17.461 16.979-35.795 22.88-54.972L959 605.115zM785.204 596.054c-5.193 16.829-12.133 33.507-20.652 49.583l-10.672 20.141 96.456 96.456-88.087 88.088-96.457-96.457-20.125 10.673c-16.137 8.55-32.829 15.488-49.599 20.651l-21.766 6.684 0 136.301L449.698 928.174 449.698 791.872l-21.767-6.684c-16.769-5.163-33.461-12.102-49.598-20.651l-20.125-10.673-96.457 96.457-88.088-88.088 96.457-96.456-10.672-20.141c-8.521-16.076-15.459-32.754-20.652-49.583l-6.698-21.766L95.828 574.287l0-124.59 136.271 0 6.698-21.751c5.208-16.919 12.162-33.598 20.652-49.568l10.687-20.141-96.472-96.486 88.118-88.088 96.427 96.427 20.125-10.672c16.031-8.49 32.709-15.429 49.598-20.607l21.767-6.698L449.699 95.828l124.604 0 0 136.285 21.766 6.698c16.89 5.179 33.567 12.117 49.599 20.607l20.125 10.672 96.427-96.427 88.117 88.088-96.472 96.486 10.688 20.141c8.489 15.971 15.444 32.649 20.652 49.568l6.698 21.751 136.271 0 0 124.59L791.902 574.287 785.204 596.054z" p-id="2756"></path><path d="M512 344.375c-92.572 0-167.625 75.037-167.625 167.625 0 92.573 75.053 167.625 167.625 167.625 92.573 0 167.625-75.052 167.625-167.625C679.625 419.412 604.573 344.375 512 344.375zM512 648.798c-75.428 0-136.797-61.369-136.797-136.798 0-75.428 61.369-136.797 136.797-136.797 75.429 0 136.798 61.369 136.798 136.797C648.798 587.429 587.429 648.798 512 648.798z" p-id="2757"></path></svg>