<?xml version="1.0" standalone="no"?><!DOCTYPE svg PUBLIC "-//W3C//DTD SVG 1.1//EN" "http://www.w3.org/Graphics/SVG/1.1/DTD/svg11.dtd"><svg t="1564739003866" class="icon" viewBox="0 0 1024 1024" version="1.1" xmlns="http://www.w3.org/2000/svg" p-id="1988" xmlns:xlink="http://www.w3.org/1999/xlink" width="200" height="200"><defs><style type="text/css"></style></defs><path d="M957.205735 504.244362c-1.209548-3.007497-30.433126-74.467015-99.742678-146.440234-40.803311-42.37204-87.132476-76.159564-137.701199-100.4242-63.234183-30.342052-133.13623-45.728484-207.761857-45.728484s-144.527674 15.386432-207.762881 45.728484c-50.567699 24.264637-96.896864 58.052161-137.699152 100.4242-69.310575 71.973218-98.534154 143.43376-99.744725 146.440234-2.431376 6.042623-1.889023 12.874215 1.465374 18.458397 1.775436 2.954285 44.338834 73.16844 119.79948 144.212496 44.560892 41.952484 91.40171 75.439156 139.216715 99.529831 60.458977 30.459732 122.609479 45.904493 184.726212 45.904493s124.267235-15.44476 184.726212-45.904493c47.816029-24.090675 94.653777-57.577347 139.217738-99.529831 75.459622-71.044056 118.024044-141.258211 119.797433-144.212496C959.096804 517.117554 959.638133 510.285962 957.205735 504.244362zM806.672276 637.396965c-41.578977 39.021735-85.042885 70.046333-129.186268 92.209098-54.43068 27.330462-110.10877 41.189098-165.487032 41.189098s-111.056352-13.858636-165.487032-41.189098c-44.143383-22.162766-87.60729-53.18634-129.185244-92.209098-56.298214-52.835346-93.992721-106.371656-107.702977-127.124306 9.878998-20.700461 37.286208-72.181973 86.843904-123.644041 37.353746-38.790468 79.660294-69.670779 125.745912-91.784426 57.579393-27.629267 121.432677-41.637306 189.784414-41.637306 68.004837 0 131.561361 13.868869 188.908464 41.21775 45.971008 21.927405 88.207971 52.568263 125.531018 91.074252 50.006927 51.589982 77.910441 103.898325 87.921445 124.793214C900.640438 531.057031 862.954117 584.579015 806.672276 637.396965z" p-id="1989"></path><path d="M512 314.491671c-107.583251 0-195.108676 87.526449-195.108676 195.108676 0 107.585297 87.526449 195.110723 195.108676 195.110723S707.108676 617.185644 707.108676 509.600347C707.108676 402.01812 619.582227 314.491671 512 314.491671zM512 663.156652c-84.671425 0-153.554258-68.88488-153.554258-153.556305s68.882833-153.554258 153.554258-153.554258 153.554258 68.882833 153.554258 153.554258S596.670401 663.156652 512 663.156652z" p-id="1990"></path></svg>